<mxfile host="65bd71144e" modified="2021-01-03T16:06:09.192Z" agent="5.0 (X11; Linux x86_64) AppleWebKit/537.36 (KHTML, like Gecko) Code/1.52.1 Chrome/83.0.4103.122 Electron/9.3.5 Safari/537.36" version="13.10.0" etag="yy299jbAvj56tdij4tCS" type="embed">
    <diagram id="-oRT9i3Uf_HIE0iy1QSK" name="Page-1">
        <mxGraphModel dx="1353" dy="967" grid="1" gridSize="10" guides="1" tooltips="1" connect="1" arrows="1" fold="1" page="1" pageScale="1" pageWidth="850" pageHeight="1100" math="0" shadow="0">
            <root>
                <mxCell id="0"/>
                <mxCell id="1" parent="0"/>
                <mxCell id="77" value="loop" style="shape=umlFrame;whiteSpace=wrap;html=1;fillColor=#FFCCCC;width=35;height=20;" vertex="1" parent="1">
                    <mxGeometry x="425" y="670" width="145" height="70" as="geometry"/>
                </mxCell>
                <mxCell id="2" value="" style="shape=umlLifeline;participant=umlActor;perimeter=lifelinePerimeter;whiteSpace=wrap;html=1;container=1;collapsible=0;recursiveResize=0;verticalAlign=top;spacingTop=36;outlineConnect=0;" vertex="1" parent="1">
                    <mxGeometry x="100" y="80" width="20" height="990" as="geometry"/>
                </mxCell>
                <mxCell id="3" value="" style="shape=umlLifeline;participant=umlControl;perimeter=lifelinePerimeter;whiteSpace=wrap;html=1;container=1;collapsible=0;recursiveResize=0;verticalAlign=top;spacingTop=36;outlineConnect=0;" vertex="1" parent="1">
                    <mxGeometry x="200" y="80" width="40" height="990" as="geometry"/>
                </mxCell>
                <mxCell id="16" value="" style="html=1;points=[];perimeter=orthogonalPerimeter;fillColor=#FFCCCC;" vertex="1" parent="3">
                    <mxGeometry x="15" y="60" width="10" height="80" as="geometry"/>
                </mxCell>
                <mxCell id="19" value="" style="html=1;points=[];perimeter=orthogonalPerimeter;fillColor=#FFCCCC;" vertex="1" parent="3">
                    <mxGeometry x="25" y="70" width="10" height="40" as="geometry"/>
                </mxCell>
                <mxCell id="48" value="" style="html=1;points=[];perimeter=orthogonalPerimeter;fillColor=#FFCCCC;" vertex="1" parent="3">
                    <mxGeometry x="25" y="210" width="10" height="140" as="geometry"/>
                </mxCell>
                <mxCell id="55" value="" style="html=1;points=[];perimeter=orthogonalPerimeter;fillColor=#FFCCCC;" vertex="1" parent="3">
                    <mxGeometry x="25" y="370" width="10" height="370" as="geometry"/>
                </mxCell>
                <mxCell id="90" value="" style="html=1;points=[];perimeter=orthogonalPerimeter;fillColor=#FFCCCC;" vertex="1" parent="3">
                    <mxGeometry x="25" y="770" width="10" height="120" as="geometry"/>
                </mxCell>
                <mxCell id="91" value="rearrange&amp;nbsp;&lt;br&gt;letters" style="html=1;verticalAlign=bottom;endArrow=block;entryX=0.957;entryY=0.656;entryDx=0;entryDy=0;entryPerimeter=0;exitX=0.957;exitY=0.246;exitDx=0;exitDy=0;exitPerimeter=0;" edge="1" parent="3" source="90" target="90">
                    <mxGeometry x="0.1433" y="30" width="80" relative="1" as="geometry">
                        <mxPoint x="36" y="790" as="sourcePoint"/>
                        <mxPoint x="40" y="850" as="targetPoint"/>
                        <Array as="points">
                            <mxPoint x="70" y="800"/>
                            <mxPoint x="70" y="850"/>
                        </Array>
                        <mxPoint as="offset"/>
                    </mxGeometry>
                </mxCell>
                <mxCell id="94" value="" style="html=1;points=[];perimeter=orthogonalPerimeter;fillColor=#FFCCCC;" vertex="1" parent="3">
                    <mxGeometry x="25" y="900" width="10" height="20" as="geometry"/>
                </mxCell>
                <mxCell id="20" value="checkPlatformAndBrowser()" style="edgeStyle=orthogonalEdgeStyle;html=1;align=left;spacingLeft=2;endArrow=block;rounded=0;exitX=1;exitY=0.138;exitDx=0;exitDy=0;exitPerimeter=0;" edge="1" parent="3" source="19">
                    <mxGeometry relative="1" as="geometry">
                        <mxPoint x="30" y="70" as="sourcePoint"/>
                        <Array as="points">
                            <mxPoint x="50" y="76"/>
                            <mxPoint x="50" y="106"/>
                        </Array>
                        <mxPoint x="32" y="106" as="targetPoint"/>
                    </mxGeometry>
                </mxCell>
                <mxCell id="101" value="" style="html=1;points=[];perimeter=orthogonalPerimeter;fillColor=#FFCCCC;" vertex="1" parent="3">
                    <mxGeometry x="25" y="130" width="10" height="20" as="geometry"/>
                </mxCell>
                <mxCell id="4" value="" style="shape=umlLifeline;participant=umlEntity;perimeter=lifelinePerimeter;whiteSpace=wrap;html=1;container=1;collapsible=0;recursiveResize=0;verticalAlign=top;spacingTop=36;outlineConnect=0;" vertex="1" parent="1">
                    <mxGeometry x="320" y="80" width="40" height="990" as="geometry"/>
                </mxCell>
                <mxCell id="57" value="" style="html=1;points=[];perimeter=orthogonalPerimeter;fillColor=#FFCCCC;" vertex="1" parent="4">
                    <mxGeometry x="15" y="400" width="10" height="40" as="geometry"/>
                </mxCell>
                <mxCell id="103" value="" style="html=1;points=[];perimeter=orthogonalPerimeter;fillColor=#FFCCCC;" vertex="1" parent="4">
                    <mxGeometry x="15" y="130" width="10" height="20" as="geometry"/>
                </mxCell>
                <mxCell id="109" value="" style="html=1;points=[];perimeter=orthogonalPerimeter;fillColor=#FFCCCC;" vertex="1" parent="4">
                    <mxGeometry x="15" y="720" width="10" height="30" as="geometry"/>
                </mxCell>
                <mxCell id="112" value="" style="html=1;points=[];perimeter=orthogonalPerimeter;fillColor=#FFCCCC;" vertex="1" parent="4">
                    <mxGeometry x="15" y="900" width="10" height="20" as="geometry"/>
                </mxCell>
                <mxCell id="5" value="" style="shape=umlLifeline;participant=umlBoundary;perimeter=lifelinePerimeter;whiteSpace=wrap;html=1;container=1;collapsible=0;recursiveResize=0;verticalAlign=top;spacingTop=36;outlineConnect=0;" vertex="1" parent="1">
                    <mxGeometry x="560" y="80" width="50" height="990" as="geometry"/>
                </mxCell>
                <mxCell id="62" value="" style="html=1;points=[];perimeter=orthogonalPerimeter;fillColor=#FFCCCC;" vertex="1" parent="5">
                    <mxGeometry x="20" y="410" width="10" height="30" as="geometry"/>
                </mxCell>
                <mxCell id="80" value="" style="html=1;points=[];perimeter=orthogonalPerimeter;fillColor=#FFCCCC;" vertex="1" parent="5">
                    <mxGeometry x="19" y="670" width="10" height="20" as="geometry"/>
                </mxCell>
                <mxCell id="87" value="" style="html=1;points=[];perimeter=orthogonalPerimeter;fillColor=#FFCCCC;" vertex="1" parent="5">
                    <mxGeometry x="20" y="720" width="10" height="30" as="geometry"/>
                </mxCell>
                <mxCell id="106" value="" style="html=1;points=[];perimeter=orthogonalPerimeter;fillColor=#FFCCCC;" vertex="1" parent="5">
                    <mxGeometry x="19" y="130" width="10" height="20" as="geometry"/>
                </mxCell>
                <mxCell id="115" value="" style="html=1;points=[];perimeter=orthogonalPerimeter;fillColor=#FFCCCC;" vertex="1" parent="5">
                    <mxGeometry x="19" y="900" width="10" height="20" as="geometry"/>
                </mxCell>
                <mxCell id="6" value="" style="shape=umlLifeline;participant=umlEntity;perimeter=lifelinePerimeter;whiteSpace=wrap;html=1;container=1;collapsible=0;recursiveResize=0;verticalAlign=top;spacingTop=36;outlineConnect=0;" vertex="1" parent="1">
                    <mxGeometry x="440" y="580" width="40" height="490" as="geometry"/>
                </mxCell>
                <mxCell id="68" value="" style="html=1;points=[];perimeter=orthogonalPerimeter;fillColor=#FFCCCC;" vertex="1" parent="6">
                    <mxGeometry x="15" y="50" width="10" height="140" as="geometry"/>
                </mxCell>
                <mxCell id="75" value="" style="html=1;points=[];perimeter=orthogonalPerimeter;fillColor=#FFCCCC;" vertex="1" parent="6">
                    <mxGeometry x="25" y="100" width="10" height="50" as="geometry"/>
                </mxCell>
                <mxCell id="76" value="change scene" style="html=1;verticalAlign=bottom;endArrow=block;exitX=0.914;exitY=0.186;exitDx=0;exitDy=0;exitPerimeter=0;" edge="1" parent="6" source="75" target="75">
                    <mxGeometry x="0.0084" y="20" width="80" relative="1" as="geometry">
                        <mxPoint x="40" y="110" as="sourcePoint"/>
                        <mxPoint x="60" y="140" as="targetPoint"/>
                        <Array as="points">
                            <mxPoint x="70" y="109"/>
                        </Array>
                        <mxPoint as="offset"/>
                    </mxGeometry>
                </mxCell>
                <mxCell id="7" value="User" style="text;html=1;strokeColor=none;fillColor=none;align=center;verticalAlign=middle;whiteSpace=wrap;rounded=0;" vertex="1" parent="1">
                    <mxGeometry x="90" y="40" width="40" height="20" as="geometry"/>
                </mxCell>
                <mxCell id="8" value="Planet Hunt app UI" style="text;html=1;strokeColor=none;fillColor=none;align=center;verticalAlign=middle;whiteSpace=wrap;rounded=0;" vertex="1" parent="1">
                    <mxGeometry x="200" y="40" width="40" height="20" as="geometry"/>
                </mxCell>
                <mxCell id="9" value="Hololink API" style="text;html=1;strokeColor=none;fillColor=none;align=center;verticalAlign=middle;whiteSpace=wrap;rounded=0;" vertex="1" parent="1">
                    <mxGeometry x="320" y="40" width="40" height="20" as="geometry"/>
                </mxCell>
                <mxCell id="10" value="Hololink Viewer" style="text;html=1;strokeColor=none;fillColor=none;align=center;verticalAlign=middle;whiteSpace=wrap;rounded=0;" vertex="1" parent="1">
                    <mxGeometry x="440" y="550" width="40" height="20" as="geometry"/>
                </mxCell>
                <mxCell id="11" value="MongoDb" style="text;html=1;strokeColor=none;fillColor=none;align=center;verticalAlign=middle;whiteSpace=wrap;rounded=0;" vertex="1" parent="1">
                    <mxGeometry x="570" y="40" width="40" height="20" as="geometry"/>
                </mxCell>
                <mxCell id="12" value="" style="shape=umlLifeline;participant=umlBoundary;perimeter=lifelinePerimeter;whiteSpace=wrap;html=1;container=1;collapsible=0;recursiveResize=0;verticalAlign=top;spacingTop=36;outlineConnect=0;" vertex="1" parent="1">
                    <mxGeometry x="680" y="80" width="50" height="990" as="geometry"/>
                </mxCell>
                <mxCell id="71" value="" style="html=1;points=[];perimeter=orthogonalPerimeter;fillColor=#FFCCCC;" vertex="1" parent="12">
                    <mxGeometry x="20" y="570" width="10" height="20" as="geometry"/>
                </mxCell>
                <mxCell id="13" value="Hololink Bucket Storage" style="text;html=1;strokeColor=none;fillColor=none;align=center;verticalAlign=middle;whiteSpace=wrap;rounded=0;" vertex="1" parent="1">
                    <mxGeometry x="690" y="40" width="40" height="20" as="geometry"/>
                </mxCell>
                <mxCell id="14" value="go to app" style="html=1;verticalAlign=bottom;startArrow=oval;startFill=1;endArrow=block;startSize=8;" edge="1" parent="1" target="2">
                    <mxGeometry width="60" relative="1" as="geometry">
                        <mxPoint x="60" y="130" as="sourcePoint"/>
                        <mxPoint x="90" y="130" as="targetPoint"/>
                    </mxGeometry>
                </mxCell>
                <mxCell id="17" value="open startpage" style="html=1;verticalAlign=bottom;endArrow=block;entryX=0;entryY=0;" edge="1" target="16" parent="1" source="2">
                    <mxGeometry relative="1" as="geometry">
                        <mxPoint x="145" y="140" as="sourcePoint"/>
                    </mxGeometry>
                </mxCell>
                <mxCell id="25" value="(isIos == true)" style="text;html=1;strokeColor=none;fillColor=none;align=center;verticalAlign=middle;whiteSpace=wrap;rounded=0;" vertex="1" parent="1">
                    <mxGeometry x="137" y="146" width="80" height="20" as="geometry"/>
                </mxCell>
                <mxCell id="26" value="alert use Safari" style="html=1;verticalAlign=bottom;endArrow=open;dashed=1;endSize=8;exitX=0.224;exitY=0.75;exitDx=0;exitDy=0;exitPerimeter=0;" edge="1" parent="1" source="19" target="2">
                    <mxGeometry x="0.1452" y="10" relative="1" as="geometry">
                        <mxPoint x="210" y="210" as="sourcePoint"/>
                        <mxPoint x="130" y="210" as="targetPoint"/>
                        <Array as="points">
                            <mxPoint x="170" y="180"/>
                        </Array>
                        <mxPoint as="offset"/>
                    </mxGeometry>
                </mxCell>
                <mxCell id="27" value="" style="html=1;points=[];perimeter=orthogonalPerimeter;fillColor=#FFCCCC;" vertex="1" parent="1">
                    <mxGeometry x="215" y="150" width="10" height="900" as="geometry"/>
                </mxCell>
                <mxCell id="35" value="clickRight()" style="html=1;verticalAlign=bottom;endArrow=block;" edge="1" parent="1">
                    <mxGeometry width="80" relative="1" as="geometry">
                        <mxPoint x="110" y="300" as="sourcePoint"/>
                        <mxPoint x="210" y="300" as="targetPoint"/>
                    </mxGeometry>
                </mxCell>
                <mxCell id="36" value="show next slide" style="html=1;verticalAlign=bottom;endArrow=open;dashed=1;endSize=8;" edge="1" parent="1" target="2">
                    <mxGeometry relative="1" as="geometry">
                        <mxPoint x="210" y="330" as="sourcePoint"/>
                        <mxPoint x="130" y="330" as="targetPoint"/>
                    </mxGeometry>
                </mxCell>
                <mxCell id="38" value="clickLeft()" style="html=1;verticalAlign=bottom;endArrow=block;" edge="1" parent="1">
                    <mxGeometry width="80" relative="1" as="geometry">
                        <mxPoint x="110" y="390" as="sourcePoint"/>
                        <mxPoint x="210" y="390" as="targetPoint"/>
                    </mxGeometry>
                </mxCell>
                <mxCell id="39" value="show previous slide" style="html=1;verticalAlign=bottom;endArrow=open;dashed=1;endSize=8;" edge="1" parent="1">
                    <mxGeometry relative="1" as="geometry">
                        <mxPoint x="210" y="420" as="sourcePoint"/>
                        <mxPoint x="109.5" y="420" as="targetPoint"/>
                    </mxGeometry>
                </mxCell>
                <mxCell id="41" value="open inventory" style="html=1;verticalAlign=bottom;endArrow=block;entryX=0.276;entryY=0.025;entryDx=0;entryDy=0;entryPerimeter=0;" edge="1" parent="1" target="55">
                    <mxGeometry width="80" relative="1" as="geometry">
                        <mxPoint x="110" y="460" as="sourcePoint"/>
                        <mxPoint x="210" y="460" as="targetPoint"/>
                    </mxGeometry>
                </mxCell>
                <mxCell id="51" value="" style="endArrow=block;endFill=1;endSize=6;html=1;" edge="1" parent="1">
                    <mxGeometry width="100" relative="1" as="geometry">
                        <mxPoint x="230" y="310" as="sourcePoint"/>
                        <mxPoint x="230" y="400" as="targetPoint"/>
                        <Array as="points">
                            <mxPoint x="250" y="310"/>
                            <mxPoint x="250" y="360"/>
                            <mxPoint x="250" y="400"/>
                        </Array>
                    </mxGeometry>
                </mxCell>
                <mxCell id="53" value="increment/&lt;br&gt;decrement&lt;br&gt;position" style="text;html=1;strokeColor=none;fillColor=none;align=center;verticalAlign=middle;whiteSpace=wrap;rounded=0;" vertex="1" parent="1">
                    <mxGeometry x="250" y="290" width="40" height="20" as="geometry"/>
                </mxCell>
                <mxCell id="56" value="getUser(id)" style="html=1;verticalAlign=bottom;endArrow=block;entryX=0.04;entryY=0.275;entryDx=0;entryDy=0;entryPerimeter=0;" edge="1" parent="1" target="57">
                    <mxGeometry width="80" relative="1" as="geometry">
                        <mxPoint x="235" y="491" as="sourcePoint"/>
                        <mxPoint x="330" y="491" as="targetPoint"/>
                    </mxGeometry>
                </mxCell>
                <mxCell id="30" value="loop" style="shape=umlFrame;whiteSpace=wrap;html=1;fillColor=#FFCCCC;width=40;height=20;" vertex="1" parent="1">
                    <mxGeometry x="100" y="270" width="200" height="80" as="geometry"/>
                </mxCell>
                <mxCell id="37" value="loop" style="shape=umlFrame;whiteSpace=wrap;html=1;fillColor=#FFCCCC;width=40;height=20;" vertex="1" parent="1">
                    <mxGeometry x="100" y="360" width="200" height="80" as="geometry"/>
                </mxCell>
                <mxCell id="40" value="opt" style="shape=umlFrame;whiteSpace=wrap;html=1;fillColor=#FFCCCC;width=40;height=15;" vertex="1" parent="1">
                    <mxGeometry x="80" y="240" width="230" height="230" as="geometry"/>
                </mxCell>
                <mxCell id="59" value="findOne(id)" style="html=1;verticalAlign=bottom;endArrow=block;" edge="1" parent="1">
                    <mxGeometry width="80" relative="1" as="geometry">
                        <mxPoint x="343" y="501" as="sourcePoint"/>
                        <mxPoint x="580" y="501" as="targetPoint"/>
                    </mxGeometry>
                </mxCell>
                <mxCell id="66" value="visit hololink" style="html=1;verticalAlign=bottom;endArrow=block;entryX=0.706;entryY=0.504;entryDx=0;entryDy=0;entryPerimeter=0;" edge="1" parent="1" source="2" target="27">
                    <mxGeometry width="80" relative="1" as="geometry">
                        <mxPoint x="150" y="580" as="sourcePoint"/>
                        <mxPoint x="220" y="580" as="targetPoint"/>
                        <Array as="points"/>
                    </mxGeometry>
                </mxCell>
                <mxCell id="70" value="open hololink url" style="html=1;verticalAlign=bottom;endArrow=block;" edge="1" parent="1" target="6">
                    <mxGeometry x="-0.0414" y="-30" width="80" relative="1" as="geometry">
                        <mxPoint x="230" y="650" as="sourcePoint"/>
                        <mxPoint x="320" y="650" as="targetPoint"/>
                        <mxPoint x="1" as="offset"/>
                    </mxGeometry>
                </mxCell>
                <mxCell id="72" value="fetch models and data" style="html=1;verticalAlign=bottom;endArrow=block;entryX=-0.12;entryY=0.54;entryDx=0;entryDy=0;entryPerimeter=0;" edge="1" parent="1" target="71">
                    <mxGeometry width="80" relative="1" as="geometry">
                        <mxPoint x="464" y="661" as="sourcePoint"/>
                        <mxPoint x="701" y="666" as="targetPoint"/>
                        <Array as="points"/>
                    </mxGeometry>
                </mxCell>
                <mxCell id="79" value="updateScore()" style="html=1;verticalAlign=bottom;endArrow=block;exitX=0.929;exitY=0.923;exitDx=0;exitDy=0;exitPerimeter=0;entryX=-0.014;entryY=0.393;entryDx=0;entryDy=0;entryPerimeter=0;" edge="1" parent="1" source="68" target="80">
                    <mxGeometry width="80" relative="1" as="geometry">
                        <mxPoint x="470" y="760" as="sourcePoint"/>
                        <mxPoint x="550" y="760" as="targetPoint"/>
                    </mxGeometry>
                </mxCell>
                <mxCell id="85" value="(planetsVisited &amp;lt; 10)" style="text;html=1;strokeColor=none;fillColor=none;align=center;verticalAlign=middle;whiteSpace=wrap;rounded=0;" vertex="1" parent="1">
                    <mxGeometry x="73" y="545" width="130" height="20" as="geometry"/>
                </mxCell>
                <mxCell id="83" value="loop" style="shape=umlFrame;whiteSpace=wrap;html=1;fillColor=#FFCCCC;width=47;height=15;" vertex="1" parent="1">
                    <mxGeometry x="80" y="530" width="640" height="260" as="geometry"/>
                </mxCell>
                <mxCell id="88" value="updateTimeAndTotalScore()" style="html=1;verticalAlign=bottom;endArrow=block;entryX=0.043;entryY=0.321;entryDx=0;entryDy=0;entryPerimeter=0;" edge="1" parent="1" target="109">
                    <mxGeometry x="0.6958" width="80" relative="1" as="geometry">
                        <mxPoint x="234" y="810" as="sourcePoint"/>
                        <mxPoint x="320" y="807" as="targetPoint"/>
                        <mxPoint as="offset"/>
                    </mxGeometry>
                </mxCell>
                <mxCell id="92" value="loop" style="shape=umlFrame;whiteSpace=wrap;html=1;fillColor=#FFCCCC;width=40;height=20;" vertex="1" parent="1">
                    <mxGeometry x="180" y="870" width="150" height="70" as="geometry"/>
                </mxCell>
                <mxCell id="95" value="open high score" style="html=1;verticalAlign=bottom;endArrow=block;entryX=0.017;entryY=0.534;entryDx=0;entryDy=0;entryPerimeter=0;" edge="1" parent="1" source="2" target="94">
                    <mxGeometry width="80" relative="1" as="geometry">
                        <mxPoint x="140" y="990" as="sourcePoint"/>
                        <mxPoint x="220" y="990" as="targetPoint"/>
                    </mxGeometry>
                </mxCell>
                <mxCell id="96" value="" style="html=1;points=[];perimeter=orthogonalPerimeter;fillColor=#FFCCCC;" vertex="1" parent="1">
                    <mxGeometry x="225" y="1010" width="10" height="20" as="geometry"/>
                </mxCell>
                <mxCell id="97" value="open bonus AR" style="html=1;verticalAlign=bottom;endArrow=block;entryX=0.052;entryY=0.5;entryDx=0;entryDy=0;entryPerimeter=0;" edge="1" parent="1" source="2" target="96">
                    <mxGeometry width="80" relative="1" as="geometry">
                        <mxPoint x="140" y="1020" as="sourcePoint"/>
                        <mxPoint x="220" y="1020" as="targetPoint"/>
                    </mxGeometry>
                </mxCell>
                <mxCell id="98" value="open wordpuzzle" style="html=1;verticalAlign=bottom;endArrow=block;entryX=-0.014;entryY=0.068;entryDx=0;entryDy=0;entryPerimeter=0;" edge="1" parent="1" source="2" target="90">
                    <mxGeometry width="80" relative="1" as="geometry">
                        <mxPoint x="140" y="860" as="sourcePoint"/>
                        <mxPoint x="220" y="860" as="targetPoint"/>
                    </mxGeometry>
                </mxCell>
                <mxCell id="24" value="opt" style="shape=umlFrame;whiteSpace=wrap;html=1;fillColor=#FFCCCC;width=40;height=20;" vertex="1" parent="1">
                    <mxGeometry x="100" y="146" width="160" height="50" as="geometry"/>
                </mxCell>
                <mxCell id="100" value="create username" style="html=1;verticalAlign=bottom;endArrow=block;entryX=0.259;entryY=0.414;entryDx=0;entryDy=0;entryPerimeter=0;" edge="1" parent="1" source="2" target="101">
                    <mxGeometry width="80" relative="1" as="geometry">
                        <mxPoint x="130" y="220" as="sourcePoint"/>
                        <mxPoint x="210" y="220" as="targetPoint"/>
                    </mxGeometry>
                </mxCell>
                <mxCell id="105" value="createUser()" style="html=1;verticalAlign=bottom;endArrow=block;exitX=0.914;exitY=0.483;exitDx=0;exitDy=0;exitPerimeter=0;entryX=-0.017;entryY=0.483;entryDx=0;entryDy=0;entryPerimeter=0;" edge="1" parent="1" source="101" target="103">
                    <mxGeometry width="80" relative="1" as="geometry">
                        <mxPoint x="250" y="220" as="sourcePoint"/>
                        <mxPoint x="330" y="220" as="targetPoint"/>
                    </mxGeometry>
                </mxCell>
                <mxCell id="107" value="insertOne()" style="html=1;verticalAlign=bottom;endArrow=block;exitX=0.776;exitY=0.466;exitDx=0;exitDy=0;exitPerimeter=0;entryX=0.031;entryY=0.431;entryDx=0;entryDy=0;entryPerimeter=0;" edge="1" parent="1" source="103" target="106">
                    <mxGeometry width="80" relative="1" as="geometry">
                        <mxPoint x="350" y="220" as="sourcePoint"/>
                        <mxPoint x="560" y="220" as="targetPoint"/>
                    </mxGeometry>
                </mxCell>
                <mxCell id="110" value="findOneAndUpdate()" style="html=1;verticalAlign=bottom;endArrow=block;exitX=1.014;exitY=0.662;exitDx=0;exitDy=0;exitPerimeter=0;" edge="1" parent="1" source="109">
                    <mxGeometry width="80" relative="1" as="geometry">
                        <mxPoint x="360" y="820" as="sourcePoint"/>
                        <mxPoint x="580" y="820" as="targetPoint"/>
                    </mxGeometry>
                </mxCell>
                <mxCell id="114" value="getTopTenUsers()" style="html=1;verticalAlign=bottom;endArrow=block;entryX=0.014;entryY=0.507;entryDx=0;entryDy=0;entryPerimeter=0;exitX=0.9;exitY=0.45;exitDx=0;exitDy=0;exitPerimeter=0;" edge="1" parent="1" source="94" target="112">
                    <mxGeometry width="80" relative="1" as="geometry">
                        <mxPoint x="250" y="990" as="sourcePoint"/>
                        <mxPoint x="330" y="990" as="targetPoint"/>
                    </mxGeometry>
                </mxCell>
                <mxCell id="116" value="find().limit().sort()" style="html=1;verticalAlign=bottom;endArrow=block;exitX=0.969;exitY=0.471;exitDx=0;exitDy=0;exitPerimeter=0;" edge="1" parent="1" source="112">
                    <mxGeometry width="80" relative="1" as="geometry">
                        <mxPoint x="350" y="990" as="sourcePoint"/>
                        <mxPoint x="580" y="990" as="targetPoint"/>
                    </mxGeometry>
                </mxCell>
            </root>
        </mxGraphModel>
    </diagram>
</mxfile>
